# xmcd
#
# Track frame offsets:
#	150
#	16605
#	26998
#	39173
#	49985
#	60608
#	71490
#	84050
#	95948
#	106148
#	116355
#	130740
#
# Disc length: 1896 seconds
#
# Revision: 0
# Processed by: cddbd v1.5.1PL2 Copyright (c) Steve Scherf et al.
# Submitted via: EasyCDDAExtractor 8.1.2.3
#
DISCID=9107660c
DTITLE=Banda Caña Verde - La Chula
DYEAR=1900
DGENRE=Banda
TTITLE0=La Chula
TTITLE1=Me Dolio Tu Olvido
TTITLE2=Si Me Dejaras
TTITLE3=Niña De Mis Amores
TTITLE4=Que Se Te Olvido
TTITLE5=El Mujeriego
TTITLE6=Porque
TTITLE7=Yo No Me Llamo Javier
TTITLE8=Se Esta Volviendo Loco
TTITLE9=Chiquilla Triste
TTITLE10=La Noche De Mi Mal
TTITLE11=Niña Bonita
EXTD=
EXTT0=
EXTT1=
EXTT2=
EXTT3=
EXTT4=
EXTT5=
EXTT6=
EXTT7=
EXTT8=
EXTT9=
EXTT10=
EXTT11=
PLAYORDER=
